HIERARCHY
ROOT Hips
{
 OFFSET 0.000000 0.000000 0.000000
 CHANNELS 6 Xposition Yposition Zposition Yrotation Xrotation Zrotation
 JOINT Chest
 {
  OFFSET 0.000000 9.585900 0.002600
  CHANNELS 3 Yrotation Xrotation Zrotation
  JOINT Chest2
  {
   OFFSET 0.000000 9.601200 -0.005300
   CHANNELS 3 Yrotation Xrotation Zrotation
   JOINT Chest3
   {
    OFFSET 0.000000 9.561800 0.000000
    CHANNELS 3 Yrotation Xrotation Zrotation
    JOINT Chest4
    {
     OFFSET 0.000000 9.552100 0.000000
     CHANNELS 3 Yrotation Xrotation Zrotation
     JOINT Neck
     {
      OFFSET 0.000000 14.453000 0.000000
      CHANNELS 3 Yrotation Xrotation Zrotation
      JOINT Head
      {
       OFFSET 0.000000 8.936500 -0.011300
       CHANNELS 3 Yrotation Xrotation Zrotation
       End Site
       {
        OFFSET 0.000000 17.073600 -0.006000
       }
      }
     }
     JOINT RightCollar
     {
      OFFSET -2.921100 9.558500 0.000000
      CHANNELS 3 Yrotation Xrotation Zrotation
      JOINT RightShoulder
      {
       OFFSET -13.519700 0.000000 0.000000
       CHANNELS 3 Yrotation Xrotation Zrotation
       JOINT RightElbow
       {
        OFFSET 0.000000 -29.696600 0.000000
        CHANNELS 3 Yrotation Xrotation Zrotation
        JOINT RightWrist
        {
         OFFSET 0.000000 -24.004700 0.000000
         CHANNELS 3 Yrotation Xrotation Zrotation
         End Site
         {
          OFFSET 0.000000 -17.728500 0.000000
         }
        }
       }
      }
     }
     JOINT LeftCollar
     {
      OFFSET 2.921100 9.558500 0.000000
      CHANNELS 3 Yrotation Xrotation Zrotation
      JOINT LeftShoulder
      {
       OFFSET 13.519700 0.000000 0.000000
       CHANNELS 3 Yrotation Xrotation Zrotation
       JOINT LeftElbow
       {
        OFFSET 0.000000 -29.696600 0.000000
        CHANNELS 3 Yrotation Xrotation Zrotation
        JOINT LeftWrist
        {
         OFFSET 0.000000 -24.004700 0.000000
         CHANNELS 3 Yrotation Xrotation Zrotation
         End Site
         {
          OFFSET 0.000000 -17.728500 0.000000
         }
        }
       }
      }
     }
    }
   }
  }
 }
 JOINT RightHip
 {
  OFFSET -7.771700 -0.012900 -0.001300
  CHANNELS 3 Yrotation Xrotation Zrotation
  JOINT RightKnee
  {
   OFFSET 0.000000 -40.869800 0.001200
   CHANNELS 3 Yrotation Xrotation Zrotation
   JOINT RightAnkle
   {
    OFFSET 0.000000 -39.717900 0.002100
    CHANNELS 3 Yrotation Xrotation Zrotation
    JOINT RightToe
    {
     OFFSET 0.000000 -4.965400 11.033500
     CHANNELS 3 Yrotation Xrotation Zrotation
     End Site
     {
      OFFSET 0.000000 -1.423100 5.872300
     }
    }
   }
  }
 }
 JOINT LeftHip
 {
  OFFSET 7.771700 -0.012900 -0.001300
  CHANNELS 3 Yrotation Xrotation Zrotation
  JOINT LeftKnee
  {
   OFFSET 0.000000 -40.869800 0.001200
   CHANNELS 3 Yrotation Xrotation Zrotation
   JOINT LeftAnkle
   {
    OFFSET 0.000000 -39.717900 0.002100
    CHANNELS 3 Yrotation Xrotation Zrotation
    JOINT LeftToe
    {
     OFFSET 0.000000 -4.965400 11.033500
     CHANNELS 3 Yrotation Xrotation Zrotation
     End Site
     {
      OFFSET 0.000000 -1.423100 5.872300
     }
    }
   }
  }
 }
}
MOTION
Frames: 16
Frame Time: 0.008333
0.000000 85.388000 0.000000 0.000000 -5.767877 0.000000 0.000000 11.653817 0.000000 0.000000 -5.885947 0.000000 0.000000 -0.000000 0.000000 0.000000 -0.000000 0.000000 0.000000 12.528835 0.000000 0.000000 0.711642 0.000000 0.000000 -0.000000 0.000000 0.000000 0.000000 -90.000000 0.000000 -2.309062 0.000000 0.000000 2.309062 0.000000 0.000000 -0.000000 0.000000 0.000000 -0.000000 90.000000 0.000000 -2.309062 0.000000 0.000000 2.309062 0.000000 0.000000 8.520406 0.000000 0.000000 1.905762 0.000000 -0.000000 -4.658285 0.000000 0.000000 -0.000000 0.000000 0.000000 8.520406 0.000000 0.000000 1.905762 0.000000 -0.000000 -4.658285 0.000000 0.000000 -0.000000 0.000000
-21.965694 60.453218 30.572193 167.641968 -27.892628 2.705851 -0.852089 19.796938 1.551050 -0.173991 2.419636 0.234103 -0.280800 3.976563 0.381136 -1.036942 16.998935 1.526641 2.453363 8.651599 4.951121 1.507205 -16.581351 4.859699 3.993897 2.354642 -4.896923 10.058821 -6.696923 -12.585819 -57.165210 -68.340524 94.996876 4.102191 3.339459 -3.476493 -9.702973 0.091391 -4.873463 3.333600 -9.688796 11.003117 79.659537 -65.068850 -125.866210 -3.017329 -2.643627 4.875394 -3.757761 -42.563531 -1.157134 -23.871485 68.695548 -22.679918 -0.960735 -3.173522 -1.791250 0.201617 -0.359960 0.030410 9.485364 -40.055806 -2.458814 37.759852 68.376514 36.818653 -19.388773 -10.116649 2.479889 -0.082046 0.363811 -0.034042
-21.968191 60.455265 30.581129 167.554241 -27.972628 2.761422 -0.885355 19.768485 1.587153 -0.179094 2.416994 0.237631 -0.289233 3.972393 0.386764 -1.071418 16.988828 1.547825 2.490959 8.677276 4.960339 1.546326 -16.553901 4.860292 4.017975 2.444171 -4.844298 9.954676 -6.766956 -12.609939 -57.332100 -68.442842 95.133856 4.065666 3.291072 -3.762185 -9.637168 0.182000 -4.834499 3.367519 -9.336235 10.902459 79.041912 -65.000031 -125.316719 -3.008523 -2.649275 4.893499 -3.664686 -42.499411 -1.211891 -23.848457 68.700072 -22.623135 -0.943153 -3.130945 -1.806511 0.195857 -0.381704 0.024417 9.557105 -39.952631 -2.435489 37.704292 68.361556 36.738064 -19.325948 -10.111622 2.467724 0.021943 0.370086 -0.012198
-21.975339 60.455881 30.595957 167.520680 -28.035777 2.811104 -0.971800 19.721986 1.600629 -0.183346 2.413951 0.240978 -0.296241 3.967606 0.392165 -1.100050 16.977700 1.568759 2.523356 8.709432 4.951877 1.583669 -16.519314 4.841862 4.041970 2.538254 -4.783260 9.853909 -6.839695 -12.655765 -57.497979 -68.531772 95.272043 4.024970 3.231449 -4.066997 -9.572108 0.287637 -4.793313 3.420737 -9.019398 10.782973 78.546198 -64.957304 -124.883266 -3.012263 -2.641816 4.899661 -3.600623 -42.457098 -1.296474 -23.803669 68.715542 -22.553646 -0.926762 -3.089967 -1.769406 0.181427 -0.402933 -0.015185 9.601564 -39.873713 -2.451815 37.688950 68.333306 36.697871 -19.307218 -10.092563 2.470091 -0.025752 0.373150 -0.011003
-21.987995 60.460324 30.606833 167.444163 -28.137644 2.918231 -1.035072 19.717660 1.572436 -0.186864 2.410411 0.244062 -0.301931 3.962015 0.397274 -1.123360 16.965227 1.589159 2.552898 8.751198 4.928097 1.621351 -16.474217 4.806404 4.067842 2.643104 -4.718725 9.753785 -6.923863 -12.718815 -57.660442 -68.611488 95.409409 3.978741 3.166683 -4.376588 -9.505461 0.409043 -4.752018 3.493487 -8.741205 10.647101 78.170749 -64.950798 -124.557380 -3.026520 -2.618300 4.899554 -3.463676 -42.371734 -1.432843 -23.759031 68.725067 -22.485598 -0.915803 -3.066565 -1.759453 0.167510 -0.396080 -0.004148 9.707013 -39.744510 -2.501236 37.659864 68.299013 36.642915 -19.404998 -10.038260 2.484583 -0.056392 0.349265 -0.011017
-21.989866 60.463469 30.625257 167.304924 -28.218181 2.983798 -1.011657 19.698527 1.621423 -0.190580 2.406115 0.246818 -0.308008 3.955212 0.401681 -1.148762 16.950529 1.606923 2.582908 8.803350 4.891607 1.662405 -16.417864 4.756110 4.093501 2.763764 -4.653909 9.661314 -7.023691 -12.795364 -57.804569 -68.679984 95.534208 3.925708 3.101152 -4.684588 -9.430663 0.544336 -4.715214 3.581318 -8.501145 10.499437 77.910144 -64.985633 -124.321642 -3.053328 -2.583764 4.896746 -3.339089 -42.288996 -1.459635 -23.691686 68.682465 -22.359879 -0.951348 -3.001932 -1.817135 0.211313 -0.399462 0.019098 9.811211 -39.618148 -2.442793 37.531518 68.260985 36.479000 -19.452678 -10.048540 2.488609 -0.026912 0.388703 0.002964
-22.000232 60.468574 30.642975 167.244155 -28.311149 3.067748 -1.069323 19.688670 1.613669 -0.194746 2.401243 0.249214 -0.314870 3.947574 0.405476 -1.178027 16.934209 1.621851 2.613173 8.864910 4.845180 1.701176 -16.347146 4.684155 4.112740 2.901488 -4.591636 9.582641 -7.139867 -12.884751 -57.922587 -68.726765 95.638923 3.869424 3.038307 -4.987837 -9.349612 0.686341 -4.683848 3.688958 -8.295767 10.341537 77.752360 -65.061457 -124.166052 -3.092736 -2.546983 4.890853 -3.221021 -42.209987 -1.596248 -23.599432 68.693264 -22.228065 -0.911219 -2.970184 -1.820612 0.170119 -0.398834 0.017849 9.891940 -39.489324 -2.472748 37.447885 68.219068 36.365144 -19.475401 -10.019148 2.487630 0.019618 0.394852 0.021131
-22.013381 60.475202 30.661453 167.177217 -28.410266 3.179259 -1.124946 19.686377 1.579525 -0.198422 2.396217 0.251328 -0.320856 3.939727 0.409058 -1.203767 16.917641 1.636034 2.639995 8.933725 4.790333 1.734340 -16.281695 4.621873 4.121219 3.049757 -4.533789 9.521631 -7.268442 -12.985136 -58.022204 -68.750573 95.720262 3.813984 2.983295 -5.276795 -9.271295 0.827942 -4.656617 3.825981 -8.121600 10.174103 77.693950 -65.172332 -124.095607 -3.139544 -2.508417 4.878104 -3.051052 -42.130714 -1.827809 -23.424527 68.727976 -21.978298 -0.821572 -2.923003 -1.794575 0.079391 -0.411614 -0.024562 9.996176 -39.366411 -2.547456 37.416149 68.194913 36.320887 -19.516513 -9.967947 2.487731 0.018226 0.366025 0.025994
-22.011141 60.478615 30.691308 167.042371 -28.467016 3.232486 -1.082839 19.650626 1.640040 -0.201187 2.391216 0.253049 -0.325301 3.931890 0.411961 -1.223226 16.901436 1.648144 2.662893 9.005735 4.729027 1.780140 -16.203988 4.556045 4.123247 3.199341 -4.477485 9.475437 -7.400722 -13.093398 -58.112572 -68.759208 95.780545 3.761870 2.936426 -5.537844 -9.196585 0.966625 -4.629422 3.987738 -7.973235 10.000030 77.739860 -65.310929 -124.117620 -3.188205 -2.467825 4.860288 -2.924400 -42.070363 -1.868211 -23.338569 68.669756 -21.807635 -0.811134 -2.822263 -1.841927 0.090066 -0.426747 -0.021416 10.097221 -39.279966 -2.499411 37.319178 68.166673 36.208829 -19.535626 -9.972161 2.473946 0.052927 0.392604 0.044752
-22.018978 60.480548 30.726325 167.012023 -28.498824 3.306389 -1.154450 19.586871 1.623283 -0.203434 2.386417 0.254169 -0.328956 3.924343 0.413702 -1.239819 16.886074 1.655773 2.684768 9.078139 4.663039 1.801455 -16.140645 4.507801 4.127220 3.345462 -4.422124 9.435601 -7.529986 -13.205750 -58.192642 -68.759821 95.825723 3.712464 2.893089 -5.769075 -9.118932 1.100382 -4.603094 4.161478 -7.844455 9.826729 77.877184 -65.469109 -124.219312 -3.236776 -2.428603 4.839900 -2.833691 -42.048829 -1.983471 -23.268795 68.641766 -21.689972 -0.817478 -2.759252 -1.839660 0.101008 -0.429924 -0.039151 10.163000 -39.209160 -2.539362 37.158277 68.082548 36.006714 -19.612932 -9.897409 2.473121 0.061088 0.401891 0.051340
-22.026364 60.484102 30.761617 166.951419 -28.547069 3.413249 -1.204466 19.541209 1.585249 -0.174385 2.432732 0.219715 -0.359970 3.865562 0.450888 -1.253802 16.870843 1.658910 2.705213 9.152593 4.593452 1.834543 -16.066798 4.439529 4.129154 3.491744 -4.370588 9.402126 -7.656912 -13.316552 -58.264165 -68.757800 95.855447 3.665277 2.852329 -5.973901 -9.039631 1.229857 -4.579290 4.342204 -7.733248 9.655224 78.080172 -65.639924 -124.377264 -3.284224 -2.389902 4.820987 -2.710193 -42.013467 -2.108804 -23.210777 68.611843 -21.594370 -0.831920 -2.702737 -1.856946 0.118804 -0.425439 -0.035425 10.258820 -39.120370 -2.590285 36.983072 68.022168 35.800934 -19.769366 -9.826170 2.489190 0.017246 0.403677 0.041410
-22.034832 60.490289 30.794776 166.829692 -28.624447 3.581525 -1.208366 19.527471 1.512106 -0.192428 2.401688 0.237304 -0.346268 3.882976 0.432037 -1.263633 16.854821 1.658990 2.722546 9.230437 4.521642 1.862992 -15.990734 4.368284 4.122514 3.643404 -4.325505 9.377344 -7.784891 -13.420717 -58.336071 -68.760072 95.865968 3.622684 2.817189 -6.150482 -8.963718 1.357134 -4.556178 4.528676 -7.639009 9.479848 78.334276 -65.820741 -124.577107 -3.330730 -2.347720 4.807209 -2.515824 -41.951242 -2.264285 -23.181920 68.580079 -21.538905 -0.877981 -2.605502 -1.877462 0.171571 -0.463473 -0.023591 10.384939 -38.974759 -2.636207 36.773434 67.964473 35.528700 -19.931136 -9.836564 2.507243 -0.025045 0.479960 0.029373
-22.034587 60.496049 30.831900 166.789573 -28.710773 3.677386 -1.265208 19.520022 1.473550 -0.206752 2.371219 0.253785 -0.334760 3.900538 0.413140 -1.269876 16.839949 1.655912 2.737511 9.309530 4.449520 1.889645 -15.912451 4.292600 4.108822 3.794834 -4.285557 9.359605 -7.909973 -13.516435 -58.417412 -68.775554 95.860867 3.585178 2.788505 -6.299279 -8.892003 1.480462 -4.531688 4.717973 -7.562534 9.300401 78.634242 -66.006761 -124.809567 -3.378219 -2.299649 4.793353 -2.433372 -41.885007 -2.359389 -23.175849 68.564609 -21.530042 -0.867679 -2.562999 -1.881536 0.161364 -0.463219 -0.014777 10.435685 -38.856255 -2.682745 36.626590 67.913440 35.342017 -19.868504 -9.764992 2.499720 -0.024399 0.467494 0.024008
-22.027113 60.500457 30.873919 166.773857 -28.793566 3.734068 -1.321409 19.509149 1.466863 -0.207154 2.367146 0.252524 -0.335496 3.894070 0.411098 -1.275441 16.828018 1.648045 2.746803 9.396648 4.382825 1.949340 -15.807457 4.138794 4.092209 3.936905 -4.249214 9.345956 -8.024234 -13.599709 -58.515120 -68.812445 95.848190 3.550166 2.765576 -6.431816 -8.826198 1.596500 -4.504966 4.907982 -7.503676 9.119515 78.969746 -66.192881 -125.065730 -3.429350 -2.247058 4.777038 -2.404079 -41.823055 -2.406645 -23.184219 68.546045 -21.541305 -0.854371 -2.511086 -1.863086 0.147227 -0.472869 -0.028839 10.460838 -38.756992 -2.720572 36.500318 67.859725 35.188362 -19.636430 -9.685515 2.461653 0.040703 0.445207 0.039700
-22.013159 60.498990 30.928352 166.681448 -28.813569 3.792155 -1.266086 19.487712 1.477037 -0.218254 2.319098 0.281715 -0.336262 3.889053 0.408453 -1.281067 16.818925 1.637169 2.744828 9.497074 4.326789 1.999801 -15.731062 4.014188 4.075070 4.066030 -4.218957 9.351456 -8.080027 -13.675919 -58.758865 -68.889808 95.936682 3.518373 2.746190 -6.562093 -8.767073 1.702424 -4.478911 5.091986 -7.459499 8.938853 79.333309 -66.378501 -125.338163 -3.484065 -2.188981 4.757216 -2.343425 -41.816644 -2.403608 -23.206151 68.466658 -21.517034 -0.865058 -2.397360 -1.921661 0.189963 -0.495115 -0.015126 10.506554 -38.708221 -2.696148 36.349284 67.795677 34.986532 -19.428269 -9.646322 2.429087 0.083410 0.468551 0.049379
-22.000238 60.505768 30.968401 166.574759 -28.941096 3.900148 -1.235307 19.510321 1.478936 -0.212531 2.339949 0.263907 -0.336080 3.885267 0.405678 -1.282562 16.812327 1.626068 2.742572 9.565051 4.262876 2.026096 -15.633436 3.925598 4.056141 4.182751 -4.195814 9.334097 -8.189775 -13.720290 -58.857220 -68.973830 95.878713 3.494660 2.725775 -6.694201 -8.715401 1.796401 -4.455361 5.264450 -7.427401 8.760128 79.722740 -66.562409 -125.622525 -3.538777 -2.125074 4.730164 -2.229781 -41.703416 -2.464041 -23.210765 68.428661 -21.503744 -0.857786 -2.334124 -1.954043 0.189652 -0.501663 0.000123 10.544810 -38.532394 -2.669446 36.232681 67.746934 34.802100 -19.333857 -9.643158 2.417677 0.079594 0.501747 0.045056
